<?xml version="1.0" standalone="no"?><!DOCTYPE svg PUBLIC "-//W3C//DTD SVG 1.1//EN" "http://www.w3.org/Graphics/SVG/1.1/DTD/svg11.dtd"><svg class="icon" width="200px" height="200.00px" viewBox="0 0 1024 1024" version="1.1" xmlns="http://www.w3.org/2000/svg"><path fill="#dbdbdb" d="M361.6 419.398h300.8v76.8H361.6v-76.8z m0-128h300.8v76.8H361.6v-76.8z m0 256h172v76.8h-172v-76.8zM896 669.773c-26.202-43.667-25.78-44.493-25.78-44.493s-90.45 25.363-107.295-61.338h-52.403s-14.452 86.836-106.868 61.127C576.934 669.6 576.026 670.995 576 671.02c0.038 0.025 72.34 50.54 0 119.142l28.077 46.163S683.949 801.87 710.112 896h53.024s16.634-86.502 106.458-60.928c25.574-43.66 25.99-44.083 25.99-44.083S827.77 732.53 896 669.773zM735.584 791.098c-33.754 0-61.133-27.367-61.133-61.133s27.373-61.14 61.133-61.14c33.76 0 61.14 27.373 61.14 61.14s-27.38 61.133-61.14 61.133z m-428.634 28.48c-28.313 0-51.264-22.95-51.264-51.264V255.686c0-28.313 22.95-51.264 51.264-51.264h410.1c28.32 0 51.264 22.95 51.264 51.264V528H832V192c0-35.347-28.653-64-64-64H256c-35.347 0-64 28.653-64 64v640c0 35.34 28.653 64 64 64h294.4v-76.422H306.95z" /></svg>